<?xml version="1.0" encoding="UTF-8"?>
<!DOCTYPE svg PUBLIC "-//W3C//DTD SVG 1.1//EN" "http://www.w3.org/Graphics/SVG/1.1/DTD/svg11.dtd">
<svg width="160mm" height="90mm" viewBox="0 0 16000 9000" version="1.1" xmlns="http://www.w3.org/2000/svg" xmlns:xlink="http://www.w3.org/1999/xlink" stroke-width="28.222" stroke-linejoin="round" xml:space="preserve">
 <path fill="rgb(255,255,255)" stroke="none" d="M 7995,9004 L 0,9004 0,19 15990,19 15990,9004 7995,9004 Z"/>
 <path fill="none" stroke="rgb(179,179,179)" stroke-linejoin="round" d="M 7333,5763 L 940,5763 940,199 13725,199 13725,5763 7333,5763 Z"/>
 <path fill="none" stroke="rgb(179,179,179)" stroke-linejoin="round" d="M 13724,5762 L 940,5762"/>
 <path fill="none" stroke="rgb(179,179,179)" stroke-linejoin="round" d="M 13724,4649 L 940,4649"/>
 <path fill="none" stroke="rgb(179,179,179)" stroke-linejoin="round" d="M 13724,3536 L 940,3536"/>
 <path fill="none" stroke="rgb(179,179,179)" stroke-linejoin="round" d="M 13724,2423 L 940,2423"/>
 <path fill="none" stroke="rgb(179,179,179)" stroke-linejoin="round" d="M 13724,1310 L 940,1310"/>
 <path fill="none" stroke="rgb(179,179,179)" stroke-linejoin="round" d="M 13724,198 L 940,198"/>
 <path fill="none" stroke="rgb(179,179,179)" stroke-linejoin="round" d="M 940,5912 L 940,5762"/>
 <path fill="none" stroke="rgb(179,179,179)" stroke-linejoin="round" d="M 940,5912 L 940,5762"/>
 <path fill="none" stroke="rgb(179,179,179)" stroke-linejoin="round" d="M 2218,5912 L 2218,5762"/>
 <path fill="none" stroke="rgb(179,179,179)" stroke-linejoin="round" d="M 2218,5912 L 2218,5762"/>
 <path fill="none" stroke="rgb(179,179,179)" stroke-linejoin="round" d="M 3497,5912 L 3497,5762"/>
 <path fill="none" stroke="rgb(179,179,179)" stroke-linejoin="round" d="M 3497,5912 L 3497,5762"/>
 <path fill="none" stroke="rgb(179,179,179)" stroke-linejoin="round" d="M 4775,5912 L 4775,5762"/>
 <path fill="none" stroke="rgb(179,179,179)" stroke-linejoin="round" d="M 4775,5912 L 4775,5762"/>
 <path fill="none" stroke="rgb(179,179,179)" stroke-linejoin="round" d="M 6054,5912 L 6054,5762"/>
 <path fill="none" stroke="rgb(179,179,179)" stroke-linejoin="round" d="M 6054,5912 L 6054,5762"/>
 <path fill="none" stroke="rgb(179,179,179)" stroke-linejoin="round" d="M 7332,5912 L 7332,5762"/>
 <path fill="none" stroke="rgb(179,179,179)" stroke-linejoin="round" d="M 7332,5912 L 7332,5762"/>
 <path fill="none" stroke="rgb(179,179,179)" stroke-linejoin="round" d="M 8610,5912 L 8610,5762"/>
 <path fill="none" stroke="rgb(179,179,179)" stroke-linejoin="round" d="M 8610,5912 L 8610,5762"/>
 <path fill="none" stroke="rgb(179,179,179)" stroke-linejoin="round" d="M 9889,5912 L 9889,5762"/>
 <path fill="none" stroke="rgb(179,179,179)" stroke-linejoin="round" d="M 9889,5912 L 9889,5762"/>
 <path fill="none" stroke="rgb(179,179,179)" stroke-linejoin="round" d="M 11167,5912 L 11167,5762"/>
 <path fill="none" stroke="rgb(179,179,179)" stroke-linejoin="round" d="M 11167,5912 L 11167,5762"/>
 <path fill="none" stroke="rgb(179,179,179)" stroke-linejoin="round" d="M 12446,5912 L 12446,5762"/>
 <path fill="none" stroke="rgb(179,179,179)" stroke-linejoin="round" d="M 12446,5912 L 12446,5762"/>
 <path fill="none" stroke="rgb(179,179,179)" stroke-linejoin="round" d="M 13724,5912 L 13724,5762"/>
 <path fill="none" stroke="rgb(179,179,179)" stroke-linejoin="round" d="M 13724,5912 L 13724,5762"/>
 <path fill="none" stroke="rgb(179,179,179)" stroke-linejoin="round" d="M 940,5762 L 13724,5762"/>
 <path fill="none" stroke="rgb(179,179,179)" stroke-linejoin="round" d="M 790,5762 L 940,5762"/>
 <path fill="none" stroke="rgb(179,179,179)" stroke-linejoin="round" d="M 790,5762 L 940,5762"/>
 <path fill="none" stroke="rgb(179,179,179)" stroke-linejoin="round" d="M 790,4649 L 940,4649"/>
 <path fill="none" stroke="rgb(179,179,179)" stroke-linejoin="round" d="M 790,4649 L 940,4649"/>
 <path fill="none" stroke="rgb(179,179,179)" stroke-linejoin="round" d="M 790,3536 L 940,3536"/>
 <path fill="none" stroke="rgb(179,179,179)" stroke-linejoin="round" d="M 790,3536 L 940,3536"/>
 <path fill="none" stroke="rgb(179,179,179)" stroke-linejoin="round" d="M 790,2423 L 940,2423"/>
 <path fill="none" stroke="rgb(179,179,179)" stroke-linejoin="round" d="M 790,2423 L 940,2423"/>
 <path fill="none" stroke="rgb(179,179,179)" stroke-linejoin="round" d="M 790,1310 L 940,1310"/>
 <path fill="none" stroke="rgb(179,179,179)" stroke-linejoin="round" d="M 790,1310 L 940,1310"/>
 <path fill="none" stroke="rgb(179,179,179)" stroke-linejoin="round" d="M 790,198 L 940,198"/>
 <path fill="none" stroke="rgb(179,179,179)" stroke-linejoin="round" d="M 790,198 L 940,198"/>
 <path fill="none" stroke="rgb(179,179,179)" stroke-linejoin="round" d="M 940,5762 L 940,198"/>
 <path fill="rgb(0,69,134)" stroke="none" d="M 12766,5762 L 13405,5762 13405,1971 12766,1971 12766,5762 Z"/>
 <path fill="rgb(0,69,134)" stroke="none" d="M 11487,5762 L 12126,5762 12126,2657 11487,2657 11487,5762 Z"/>
 <path fill="rgb(0,69,134)" stroke="none" d="M 10208,5762 L 10848,5762 10848,3701 10208,3701 10208,5762 Z"/>
 <path fill="rgb(0,69,134)" stroke="none" d="M 8930,5762 L 9569,5762 9569,3424 8930,3424 8930,5762 Z"/>
 <path fill="rgb(0,69,134)" stroke="none" d="M 7652,5762 L 8290,5762 8290,3569 7652,3569 7652,5762 Z"/>
 <path fill="rgb(0,69,134)" stroke="none" d="M 6374,5762 L 7013,5762 7013,3979 6374,3979 6374,5762 Z"/>
 <path fill="rgb(0,69,134)" stroke="none" d="M 5095,5762 L 5734,5762 5734,4068 5095,4068 5095,5762 Z"/>
 <path fill="rgb(0,69,134)" stroke="none" d="M 3816,5762 L 4456,5762 4456,4631 3816,4631 3816,5762 Z"/>
 <path fill="rgb(0,69,134)" stroke="none" d="M 2538,5762 L 3177,5762 3177,5088 2538,5088 2538,5762 Z"/>
 <path fill="rgb(0,69,134)" stroke="none" d="M 1259,5762 L 1898,5762 1898,5168 1259,5168 1259,5762 Z"/>
 <path fill="rgb(255,66,14)" stroke="none" d="M 12766,1971 L 13405,1971 13405,1203 12766,1203 12766,1971 Z"/>
 <path fill="rgb(255,66,14)" stroke="none" d="M 11487,2657 L 12126,2657 12126,2158 11487,2158 11487,2657 Z"/>
 <path fill="rgb(255,66,14)" stroke="none" d="M 10208,3701 L 10848,3701 10848,3186 10208,3186 10208,3701 Z"/>
 <path fill="rgb(255,66,14)" stroke="none" d="M 8930,3424 L 9569,3424 9569,3026 8930,3026 8930,3424 Z"/>
 <path fill="rgb(255,66,14)" stroke="none" d="M 7652,3569 L 8290,3569 8290,3240 7652,3240 7652,3569 Z"/>
 <path fill="rgb(255,66,14)" stroke="none" d="M 6374,3979 L 7013,3979 7013,3658 6374,3658 6374,3979 Z"/>
 <path fill="rgb(255,66,14)" stroke="none" d="M 5095,4068 L 5734,4068 5734,3808 5095,3808 5095,4068 Z"/>
 <path fill="rgb(255,66,14)" stroke="none" d="M 3816,4631 L 4456,4631 4456,4430 3816,4430 3816,4631 Z"/>
 <path fill="rgb(255,66,14)" stroke="none" d="M 2538,5088 L 3177,5088 3177,4936 2538,4936 2538,5088 Z"/>
 <path fill="rgb(255,66,14)" stroke="none" d="M 1259,5168 L 1898,5168 1898,5081 1259,5081 1259,5168 Z"/>
 <text class="TextShape" transform="rotate(-44.9 746 7150)"><tspan class="TextParagraph" font-family="Liberation Sans, sans-serif" font-size="353px" font-weight="400"><tspan class="TextPosition" x="746" y="7150"><tspan fill="rgb(0,0,0)" stroke="none">1M write</tspan></tspan></tspan></text>
 <text class="TextShape" transform="rotate(-44.9 1968 7206)"><tspan class="TextParagraph" font-family="Liberation Sans, sans-serif" font-size="353px" font-weight="400"><tspan class="TextPosition" x="1968" y="7206"><tspan fill="rgb(0,0,0)" stroke="none">16k write</tspan></tspan></tspan></text>
 <text class="TextShape" transform="rotate(-44.9 3377 7076)"><tspan class="TextParagraph" font-family="Liberation Sans, sans-serif" font-size="353px" font-weight="400"><tspan class="TextPosition" x="3377" y="7076"><tspan fill="rgb(0,0,0)" stroke="none">4k write</tspan></tspan></tspan></text>
 <text class="TextShape" transform="rotate(-44.9 4450 7281)"><tspan class="TextParagraph" font-family="Liberation Sans, sans-serif" font-size="353px" font-weight="400"><tspan class="TextPosition" x="4450" y="7281"><tspan fill="rgb(0,0,0)" stroke="none">1M splice</tspan></tspan></tspan></text>
 <text class="TextShape" transform="rotate(-44.9 4437 8569)"><tspan class="TextParagraph" font-family="Liberation Sans, sans-serif" font-size="353px" font-weight="400"><tspan class="TextPosition" x="4437" y="8569"><tspan fill="rgb(0,0,0)" stroke="none">1M mmap, 16k splice</tspan></tspan></tspan></text>
 <text class="TextShape" transform="rotate(-44.9 5716 8569)"><tspan class="TextParagraph" font-family="Liberation Sans, sans-serif" font-size="353px" font-weight="400"><tspan class="TextPosition" x="5716" y="8569"><tspan fill="rgb(0,0,0)" stroke="none">16k mmap, 1M splice</tspan></tspan></tspan></text>
 <text class="TextShape" transform="rotate(-44.9 7406 8159)"><tspan class="TextParagraph" font-family="Liberation Sans, sans-serif" font-size="353px" font-weight="400"><tspan class="TextPosition" x="7406" y="8159"><tspan fill="rgb(0,0,0)" stroke="none">16k mmap+splice</tspan></tspan></tspan></text>
 <text class="TextShape" transform="rotate(-44.9 8404 8439)"><tspan class="TextParagraph" font-family="Liberation Sans, sans-serif" font-size="353px" font-weight="400"><tspan class="TextPosition" x="8404" y="8439"><tspan fill="rgb(0,0,0)" stroke="none">1M mmap, 4k splice</tspan></tspan></tspan></text>
 <text class="TextShape" transform="rotate(-44.9 9683 8439)"><tspan class="TextParagraph" font-family="Liberation Sans, sans-serif" font-size="353px" font-weight="400"><tspan class="TextPosition" x="9683" y="8439"><tspan fill="rgb(0,0,0)" stroke="none">4k mmap, 1M splice</tspan></tspan></tspan></text>
 <text class="TextShape" transform="rotate(-44.9 11373 8028)"><tspan class="TextParagraph" font-family="Liberation Sans, sans-serif" font-size="353px" font-weight="400"><tspan class="TextPosition" x="11373" y="8028"><tspan fill="rgb(0,0,0)" stroke="none">4k mmap+splice</tspan></tspan></tspan></text>
 <text class="TextShape"><tspan class="TextParagraph" font-family="Liberation Sans, sans-serif" font-size="352px" font-weight="400"><tspan class="TextPosition" x="505" y="5882"><tspan fill="rgb(0,0,0)" stroke="none">0</tspan></tspan></tspan></text>
 <text class="TextShape"><tspan class="TextParagraph" font-family="Liberation Sans, sans-serif" font-size="352px" font-weight="400"><tspan class="TextPosition" x="505" y="4769"><tspan fill="rgb(0,0,0)" stroke="none">5</tspan></tspan></tspan></text>
 <text class="TextShape"><tspan class="TextParagraph" font-family="Liberation Sans, sans-serif" font-size="352px" font-weight="400"><tspan class="TextPosition" x="320" y="3656"><tspan fill="rgb(0,0,0)" stroke="none">10</tspan></tspan></tspan></text>
 <text class="TextShape"><tspan class="TextParagraph" font-family="Liberation Sans, sans-serif" font-size="352px" font-weight="400"><tspan class="TextPosition" x="320" y="2543"><tspan fill="rgb(0,0,0)" stroke="none">15</tspan></tspan></tspan></text>
 <text class="TextShape"><tspan class="TextParagraph" font-family="Liberation Sans, sans-serif" font-size="352px" font-weight="400"><tspan class="TextPosition" x="320" y="1430"><tspan fill="rgb(0,0,0)" stroke="none">20</tspan></tspan></tspan></text>
 <text class="TextShape"><tspan class="TextParagraph" font-family="Liberation Sans, sans-serif" font-size="352px" font-weight="400"><tspan class="TextPosition" x="320" y="318"><tspan fill="rgb(0,0,0)" stroke="none">25</tspan></tspan></tspan></text>
 <path fill="rgb(0,69,134)" stroke="none" d="M 14266,4864 L 14160,4864 14160,4654 14371,4654 14371,4864 14266,4864 Z"/>
 <path fill="rgb(255,66,14)" stroke="none" d="M 14266,4367 L 14160,4367 14160,4157 14371,4157 14371,4367 14266,4367 Z"/>
 <text class="TextShape"><tspan class="TextParagraph" font-family="Liberation Sans, sans-serif" font-size="352px" font-weight="400"><tspan class="TextPosition" x="14471" y="4381"><tspan fill="rgb(0,0,0)" stroke="none">User</tspan></tspan></tspan></text>
 <text class="TextShape"><tspan class="TextParagraph" font-family="Liberation Sans, sans-serif" font-size="352px" font-weight="400"><tspan class="TextPosition" x="14471" y="4878"><tspan fill="rgb(0,0,0)" stroke="none">System</tspan></tspan></tspan></text>
</svg>